
<svg version="1.1" xmlns="http://www.w3.org/2000/svg" width="1024" height="1024" viewBox="0 0 1024 1024" preserveAspectRatio="xMidYMid meet">
<path d="M0 0 C337.92 0 675.84 0 1024 0 C1024 337.92 1024 675.84 1024 1024 C686.08 1024 348.16 1024 0 1024 C0 686.08 0 348.16 0 0 Z " fill="#FBFBFB" transform="translate(0,0)" />
<path d="M0 0 C337.92 0 675.84 0 1024 0 C1024 337.92 1024 675.84 1024 1024 C686.08 1024 348.16 1024 0 1024 C0 686.08 0 348.16 0 0 Z M458 76 C456.82969238 76.14002441 455.65938477 76.28004883 454.45361328 76.42431641 C411.57623875 81.78329261 370.37842912 94.37993114 331 112 C330.0831543 112.40686035 329.16630859 112.8137207 328.22167969 113.23291016 C313.54223792 119.79861434 299.75049484 127.68423645 286 136 C285.24348145 136.45375 284.48696289 136.9075 283.70751953 137.375 C266.81652205 147.53261183 250.82324947 158.9282022 235.71191406 171.57617188 C233.27236724 173.60518457 230.78879296 175.57861111 228.3125 177.5625 C217.95952696 186.09116061 208.43204427 195.45852091 198.92315674 204.90161133 C197.82404815 205.99266094 196.72346507 207.08222756 195.62127686 208.17016602 C188.59953135 215.11076469 182.14083764 222.25115418 176 230 C174.44074195 231.83609142 172.87896067 233.67004964 171.3125 235.5 C122.29118407 294.38628663 91.24557411 366.88651354 78.3371582 442.06134033 C78.01906936 443.89035115 77.68484839 445.71653526 77.34960938 447.54248047 C73.62299168 468.46181932 73.6319541 489.45141732 73.625 510.625 C73.62395515 511.34124668 73.62291031 512.05749336 73.6218338 512.79544449 C73.59137296 535.53130851 74.27460059 558.05180289 78.1875 580.5 C78.40035645 581.74136719 78.61321289 582.98273438 78.83251953 584.26171875 C82.71146356 606.25067226 87.65778807 627.88877651 95 649 C95.32693848 649.96502441 95.65387695 650.93004883 95.99072266 651.92431641 C113.23011047 702.74246433 139.40593471 749.94138715 174 791 C174.4321582 791.5170752 174.86431641 792.03415039 175.30957031 792.56689453 C188.15290038 807.91281851 201.72638138 823.21910879 216.9609375 836.23828125 C219.2269223 838.19605739 221.42143494 840.22228948 223.625 842.25 C229.21522951 847.28716266 235.08940505 851.90512342 241.04785156 856.49365234 C243.08746929 858.06749444 245.1180559 859.65254662 247.1484375 861.23828125 C273.4055092 881.65276359 302.43988674 899.11780207 333.05126953 912.15478516 C335.89952595 913.39014769 338.69659257 914.72904403 341.5 916.0625 C353.06124927 921.40739916 364.88859269 925.91920013 377.16699219 929.31469727 C380.46739889 930.22915421 383.66968085 931.22397734 386.86328125 932.46484375 C420.29887234 945.27668803 460.26078017 950.07722188 495.84765625 950.203125 C497.13900986 950.20882507 498.43036346 950.21452515 499.760849 950.22039795 C502.48453145 950.23081358 505.2081853 950.23671484 507.93188477 950.24023438 C510.658912 950.24457742 513.3856154 950.2583242 516.11254883 950.28125 C542.82314895 950.50105044 568.77997638 948.10208065 595 943 C596.47678223 942.71769531 596.47678223 942.71769531 597.98339844 942.4296875 C634.38614159 935.41341834 671.63895103 923.64235351 704.52685547 906.30078125 C706.363115 905.33497762 708.20403123 904.37801687 710.04736328 903.42578125 C726.67002605 894.83326209 742.56455456 885.62358593 758 875 C758.70318359 874.51660156 759.40636719 874.03320312 760.13085938 873.53515625 C772.7119802 864.8280616 784.72117106 855.43686941 796.30664062 845.45068359 C798.02184492 843.98128568 799.75160524 842.53065369 801.484375 841.08203125 C808.98055626 834.76518422 816.06445657 828.11632425 823 821.1875 C823.78906738 820.39923828 824.57813477 819.61097656 825.39111328 818.79882812 C830.12350123 814.02115898 834.62193658 809.102279 839 804 C840.04548873 802.80867783 841.09233707 801.61854729 842.140625 800.4296875 C878.24756206 759.24324167 905.5611313 712.68542339 924.71679688 661.42871094 C925.74671295 658.67678145 926.79601424 655.93438315 927.859375 653.1953125 C940.82900733 619.08659373 947.21969463 581.80008013 949.74975586 545.53027344 C949.91168538 543.24588233 950.08859645 540.96248287 950.28344727 538.68066406 C950.96862927 530.65303033 951.19321516 522.68078093 951.1875 514.625 C951.18722809 513.96547333 951.18695618 513.30594666 951.18667603 512.62643433 C952.7863538 475.7011191 952.7863538 475.7011191 945 441 C944.53402331 438.14774775 944.1022209 435.29720059 943.6875 432.4375 C934.56538859 372.65639927 908.4416427 313.45718758 874 264 C873.59716797 263.41847168 873.19433594 262.83694336 872.77929688 262.23779297 C860.55233659 244.64821579 846.96118162 228.19268412 832.38818359 212.50585938 C830.96096439 210.95765535 829.55097684 209.39521132 828.14453125 207.828125 C823.59985264 202.77813552 819.03339307 197.94024368 813.81640625 193.56640625 C812.00067355 192.00058084 810.35057296 190.3509788 808.6875 188.625 C805.03532376 184.91511443 801.05157538 181.69509176 796.99609375 178.4375 C794.4572149 176.37197145 791.97603277 174.25588222 789.50683594 172.1081543 C764.19898656 150.20591938 734.78725429 132.98445777 705 118 C704.1435791 117.56445801 703.2871582 117.12891602 702.40478516 116.68017578 C688.08157042 109.43359311 673.26916574 103.68122728 658.21191406 98.17626953 C655.528512 97.19355205 652.85273293 96.19399328 650.1796875 95.18359375 C625.26031034 85.89286019 598.83264231 81.22041357 572.625 77.25 C571.93514008 77.14299774 571.24528015 77.03599548 570.53451538 76.92575073 C550.93075328 73.91003481 531.30081165 73.79162511 511.5 73.8125 C510.34914917 73.81343658 509.19829834 73.81437317 508.01257324 73.81533813 C491.26754101 73.84486287 474.64145558 73.94527652 458 76 Z " fill="#191919" transform="translate(0,0)" />
<path d="M0 0 C0.33 0.99 0.66 1.98 1 3 C0.20239258 5.43481445 0.20239258 5.43481445 -1.10546875 8.36328125 C-1.82911621 10.01034058 -1.82911621 10.01034058 -2.56738281 11.69067383 C-3.10202148 12.88587646 -3.63666016 14.0810791 -4.1875 15.3125 C-5.31742349 17.88271276 -6.43860324 20.45669563 -7.55859375 23.03125 C-7.99209641 24.0252758 -7.99209641 24.0252758 -8.43435669 25.03938293 C-11.3458422 31.74171797 -14.06169445 38.5178411 -16.75 45.3125 C-21.34140499 56.88566887 -26.01601003 68.42189339 -30.75 79.9375 C-31.25558945 81.16749222 -31.25558945 81.16749222 -31.77139282 82.42233276 C-33.14780746 85.77031419 -34.52455248 89.11815933 -35.90193176 92.46574402 C-38.26657964 98.21334662 -40.62538535 103.963316 -42.98046875 109.71484375 C-49.74079111 126.2215932 -56.53238951 142.71468006 -63.375 159.1875 C-69.31293012 173.48290888 -75.20685507 187.79568731 -81.0625 202.125 C-81.43756683 203.04276215 -81.81263367 203.96052429 -82.19906616 204.90609741 C-83.70128292 208.58224007 -85.20326155 212.25847991 -86.70497131 215.93482971 C-90.52723515 225.29203621 -94.35370495 234.64751163 -98.1875 244 C-98.51033966 244.78756683 -98.83317932 245.57513367 -99.165802 246.38656616 C-106.37065814 263.95484136 -113.67479855 281.48162148 -121 299 C-121.66 299 -122.32 299 -123 299 C-124.89236637 296.66112022 -126.67562171 294.30969106 -128.4375 291.875 C-129.5259813 290.39613165 -130.61585243 288.91828536 -131.70703125 287.44140625 C-132.53388428 286.32016357 -132.53388428 286.32016357 -133.37744141 285.17626953 C-135.73771433 282.01053483 -138.17289844 278.90734272 -140.625 275.8125 C-144.4634741 270.95751838 -148.26223704 266.07527262 -152.02880859 261.1640625 C-155.58404969 256.53243866 -159.16405974 251.92038635 -162.75 247.3125 C-163.34127686 246.55243652 -163.93255371 245.79237305 -164.54174805 245.00927734 C-167.552769 241.1399956 -170.56705256 237.27330562 -173.5859375 233.41015625 C-179.36739398 226.00544468 -185.11185505 218.57716257 -190.75 211.0625 C-191.25160645 210.39395996 -191.75321289 209.72541992 -192.27001953 209.03662109 C-194.24448109 206.39368978 -196.16959319 203.74561021 -198 201 C-198.33 297.03 -198.66 393.06 -199 492 C-232.66 492 -266.32 492 -301 492 C-301 341.52 -301 191.04 -301 36 C-269.65 36 -238.3 36 -206 36 C-200.112634 43.0648392 -194.31856269 50.07184869 -188.765625 57.3828125 C-185.54077082 61.61216839 -182.26932114 65.80498541 -179 70 C-174.98512002 75.15539773 -170.97898841 80.31684405 -167 85.5 C-158.46591725 96.61252482 -149.85148678 107.66302542 -141.18383789 118.67163086 C-136.82991584 124.20584731 -132.51128939 129.76732511 -128.19140625 135.328125 C-124.64109426 139.8961413 -121.07886323 144.4543254 -117.5 149 C-113.19656384 154.46999145 -108.9054015 159.94946171 -104.625 165.4375 C-104.04169922 166.18322266 -103.45839844 166.92894531 -102.85742188 167.69726562 C-100.21540456 171.08892107 -97.64428651 174.49015657 -95.2109375 178.03515625 C-94.11652344 179.50275391 -94.11652344 179.50275391 -93 181 C-92.34 181 -91.68 181 -91 181 C-90.41621582 179.82719482 -89.83243164 178.65438965 -89.23095703 177.44604492 C-87.01518316 172.99607215 -84.79654807 168.54753063 -82.57714844 164.09936523 C-81.62620076 162.19251369 -80.67597765 160.28530059 -79.7265625 158.37768555 C-74.49466763 147.86678658 -69.1936588 137.40392937 -63.69290161 127.03105164 C-58.97008096 118.10002647 -54.48840126 109.05044035 -50 100 C-44.6872366 89.28731067 -39.30933519 78.62270088 -33.71141052 68.05584717 C-29.19774632 59.51905881 -24.86990918 50.89224493 -20.5625 42.25 C-20.1553476 41.43480896 -19.74819519 40.61961792 -19.32870483 39.77972412 C-12.74122928 26.58801877 -6.26749277 13.34731828 0 0 Z " fill="#0B0B0B" transform="translate(601,248)" />
<path d="M0 0 C33.66 0 67.32 0 102 0 C102 150.48 102 300.96 102 456 C70.65 456 39.3 456 7 456 C-6.86363636 438.93706294 -6.86363636 438.93706294 -12.6953125 431.0546875 C-15.37610127 427.50150646 -18.14653117 424.02933445 -20.9375 420.5625 C-25.04378348 415.46042183 -29.0918661 410.32418883 -33.07226562 405.12304688 C-42.60737229 392.66564844 -52.29452477 380.32487115 -62 368 C-69.15119435 358.9187807 -76.26914396 349.81250903 -83.359375 340.68359375 C-85.84426764 337.48459735 -88.33434064 334.2897256 -90.828125 331.09765625 C-91.45356201 330.29618164 -92.07899902 329.49470703 -92.72338867 328.66894531 C-93.91254164 327.1452888 -95.10273788 325.62244569 -96.29418945 324.10058594 C-98.86983912 320.79770749 -101.3838024 317.48067831 -103.77734375 314.04296875 C-105.65807785 310.97992382 -105.65807785 310.97992382 -108 310 C-108.28386755 310.73025485 -108.5677351 311.4605097 -108.8602047 312.21289349 C-109.89285172 314.7379936 -111.0160657 317.15530107 -112.23672485 319.59370422 C-112.68227722 320.48618362 -113.12782959 321.37866302 -113.58688354 322.29818726 C-114.07206451 323.26495392 -114.55724548 324.23172058 -115.05712891 325.2277832 C-115.82833069 326.77040581 -115.82833069 326.77040581 -116.6151123 328.3441925 C-118.31703465 331.74734023 -120.02178982 335.1490606 -121.7265625 338.55078125 C-122.91540755 340.92660427 -124.10409433 343.30250583 -125.29257202 345.67851257 C-128.10756659 351.30539342 -130.92459549 356.93125321 -133.74236333 362.55674571 C-136.91769927 368.89633375 -140.09083517 375.23702196 -143.26374936 381.57782233 C-148.7473536 392.53626448 -154.23241624 403.49397567 -159.7199192 414.45046616 C-161.96394769 418.93138736 -164.20697704 423.41279274 -166.44500732 427.89671326 C-166.81185324 428.6314899 -167.17869915 429.36626654 -167.55666161 430.12330914 C-168.21131672 431.43496042 -168.86555206 432.74682137 -169.51922035 434.05896473 C-172.26560489 439.56136189 -175.12574692 445.00118961 -178 450.4375 C-182.27125713 458.56666679 -186.32422186 466.75892642 -190.17578125 475.09375 C-192.97278651 481.13346218 -195.98985097 487.06436239 -199 493 C-199.495 491.515 -199.495 491.515 -200 490 C-199.31347656 487.72729492 -199.31347656 487.72729492 -198.140625 484.98046875 C-197.69420654 483.91957031 -197.24778809 482.85867188 -196.7878418 481.765625 C-196.02661011 479.99445313 -196.02661011 479.99445313 -195.25 478.1875 C-194.71346449 476.91844806 -194.17810234 475.64889953 -193.64379883 474.37890625 C-192.76003708 472.27900187 -191.87536472 470.17951351 -190.98738098 468.08139038 C-187.24167031 459.23023168 -183.57666059 450.34578775 -179.90997314 441.46166992 C-178.67706449 438.47471803 -177.44282552 435.48831814 -176.20849609 432.50195312 C-170.90822889 419.67039425 -165.66738283 406.81599598 -160.46856689 393.9430542 C-154.86818519 380.08127144 -149.15498929 366.26784449 -143.41674805 352.46264648 C-138.47496432 340.5714552 -133.56844241 328.66628944 -128.6875 316.75 C-124.18670604 305.76240582 -119.67479187 294.77991792 -115.125 283.8125 C-110.04258046 271.55827077 -105.01833726 259.28058947 -100 247 C-94.66671721 233.94967244 -89.32617609 220.90256857 -83.9375 207.875 C-83.44314453 206.67875 -82.94878906 205.4825 -82.43945312 204.25 C-81.99408203 203.17492187 -81.54871094 202.09984375 -81.08984375 200.9921875 C-80.70691162 200.06776855 -80.32397949 199.14334961 -79.92944336 198.19091797 C-79.32883253 196.7751361 -78.68777492 195.37554983 -78 194 C-74.8747319 195.34843405 -73.17190753 196.69469279 -71.15234375 199.421875 C-70.63551025 200.11015381 -70.11867676 200.79843262 -69.58618164 201.50756836 C-69.0421167 202.2475708 -68.49805176 202.98757324 -67.9375 203.75 C-66.76904074 205.30920227 -65.59975836 206.86778801 -64.4296875 208.42578125 C-63.84928711 209.20260254 -63.26888672 209.97942383 -62.67089844 210.77978516 C-60.34641794 213.8684505 -57.96164491 216.90669508 -55.5625 219.9375 C-46.79023725 231.0593323 -38.09147556 242.23786433 -29.5 253.5 C-24.92249722 259.50004117 -20.31871519 265.47880287 -15.6875 271.4375 C-15.13707031 272.14648438 -14.58664062 272.85546875 -14.01953125 273.5859375 C-9.72844198 279.09865266 -5.36520274 284.54349657 -1 290 C-0.505 146.45 -0.505 146.45 0 0 Z " fill="#0B0B0B" transform="translate(622,284)" />
<path d="M0 0 C0.33 0.99 0.66 1.98 1 3 C0.10717773 5.67285156 0.10717773 5.67285156 -1.31640625 8.890625 C-1.83106445 10.06915039 -2.34572266 11.24767578 -2.87597656 12.46191406 C-3.43810471 13.72463 -4.00027996 14.98732497 -4.5625 16.25 C-5.40041801 18.15996554 -6.23481484 20.07144178 -7.06887817 21.98309326 C-7.61802169 23.24140422 -8.16820837 24.49926044 -8.7194519 25.75665283 C-11.64557264 32.44076405 -14.36233498 39.19760074 -17 46 C-19.475 46.495 -19.475 46.495 -22 47 C-20.33861229 41.43161263 -17.89309055 36.34246469 -15.375 31.125 C-14.93349609 30.20404541 -14.49199219 29.28309082 -14.03710938 28.33422852 C-10.11432834 20.177525 -6.08360349 12.0771275 -2 4 C-1.33247767 2.66709484 -0.66533566 1.333998 0 0 Z " fill="#232323" transform="translate(601,248)" />
<path d="M0 0 C5.42431044 10.08595467 3.09922967 25.5266869 3.125 36.75 C3.12967285 38.05171143 3.1343457 39.35342285 3.13916016 40.69458008 C3.12573586 48.84157741 2.75354246 56.88783216 2 65 C1.67 65 1.34 65 1 65 C0.12675009 61.24361695 -0.12163671 57.77743868 -0.11352539 53.92456055 C-0.11344986 52.72369308 -0.11337433 51.52282562 -0.11329651 50.28556824 C-0.10813522 48.99894791 -0.10297394 47.71232758 -0.09765625 46.38671875 C-0.09578956 45.04865064 -0.09436684 43.71058185 -0.09336853 42.37251282 C-0.08956314 38.8626413 -0.07974988 35.35281161 -0.06866455 31.84295654 C-0.05840777 28.25663824 -0.05386179 24.67031314 -0.04882812 21.08398438 C-0.03812572 14.05597247 -0.02107321 7.02798825 0 0 Z " fill="#CDCDCD" transform="translate(948,477)" />
<path d="M0 0 C0.99 0.99 1.98 1.98 3 3 C1.4088629 8.25327804 -0.81634161 13.06749397 -3.1875 18 C-3.58316162 18.82927002 -3.97882324 19.65854004 -4.38647461 20.51293945 C-7.83687996 27.71948228 -11.38503047 34.8746742 -15 42 C-15.495 40.515 -15.495 40.515 -16 39 C-15.07543945 36.15600586 -15.07543945 36.15600586 -13.61328125 32.71484375 C-13.35500046 32.09912003 -13.09671967 31.4833963 -12.83061218 30.84901428 C-12.00015957 28.87460278 -11.15671882 26.90605931 -10.3125 24.9375 C-9.76277618 23.63905072 -9.21393846 22.34022591 -8.66601562 21.04101562 C-7.86317166 19.13807533 -7.05955768 17.23550248 -6.25198364 15.33456421 C-4.09392952 10.25181325 -2.0190645 5.13936828 0 0 Z " fill="#1F2020" transform="translate(438,735)" />
<path d="M0 0 C0.33 0.99 0.66 1.98 1 3 C0.22265625 5.48046875 0.22265625 5.48046875 -0.9375 8.1875 C-1.31777344 9.08855469 -1.69804688 9.98960937 -2.08984375 10.91796875 C-2.54037109 11.94857422 -2.54037109 11.94857422 -3 13 C-3.33 12.34 -3.66 11.68 -4 11 C-4.66 10.67 -5.32 10.34 -6 10 C-5.18957164 8.51969728 -4.37659652 7.04078858 -3.5625 5.5625 C-2.88380859 4.32693359 -2.88380859 4.32693359 -2.19140625 3.06640625 C-1 1 -1 1 0 0 Z " fill="#1A1A19" transform="translate(592,269)" />
<path d="M0 0 C0.66 0.33 1.32 0.66 2 1 C0.56835889 4.65938172 -0.98934296 8.23988068 -2.625 11.8125 C-3.29402344 13.27623047 -3.29402344 13.27623047 -3.9765625 14.76953125 C-4.48316406 15.87361328 -4.48316406 15.87361328 -5 17 C-5.33 16.01 -5.66 15.02 -6 14 C-5.10304149 11.5225487 -4.15646838 9.19912249 -3.0625 6.8125 C-2.77181641 6.15830078 -2.48113281 5.50410156 -2.18164062 4.83007812 C-1.46304657 3.21618656 -0.7326412 1.60756345 0 0 Z " fill="#454744" transform="translate(428,760)" />
<path d="M0 0 C0.99 0.33 1.98 0.66 3 1 C3.05406122 2.93719378 3.09282025 4.87481921 3.125 6.8125 C3.14820312 7.89144531 3.17140625 8.97039063 3.1953125 10.08203125 C3 13 3 13 1 16 C0.67 10.72 0.34 5.44 0 0 Z " fill="#CECDCD" transform="translate(75,550)" />
<path d="M0 0 C1.49371231 2.56064967 2.43523648 5.16419969 3.25 8 C3.44078125 8.66 3.6315625 9.32 3.828125 10 C4 12 4 12 2 16 C1.01 11.05 0.02 6.1 -1 1 C-0.67 0.67 -0.34 0.34 0 0 Z " fill="#D0CFCF" transform="translate(85,607)" />
<path d="M0 0 C0.99 0.66 1.98 1.32 3 2 C2.0520411 4.02518491 1.04808041 6.02477154 0 8 C-0.99 8.495 -0.99 8.495 -2 9 C-1.51421457 5.87709365 -1.0013988 3.00419641 0 0 Z " fill="#242524" transform="translate(431,752)" />
<path d="M0 0 C0.33 0.99 0.66 1.98 1 3 C-0.4375 5.6875 -0.4375 5.6875 -2 8 C-2.66 8 -3.32 8 -4 8 C-3.61266988 5.13375709 -3.35179633 3.40808374 -1.4375 1.1875 C-0.963125 0.795625 -0.48875 0.40375 0 0 Z " fill="#151514" transform="translate(436,745)" />
</svg>
